{"title":"2016 Obamas America WEBRip XViD-UNiQUE","uid":7668170,"size":762978355,"categoryP":"video","categoryS":"movies","magnet":"?xt=urn:btih:7c182514a823eecbda8c56ac2c312ef6257b3664&amp;dn=2016+Obamas+America+WEBRip+XViD-UNiQUE&amp;tr=udp%3A%2F%2Ftracker.openbittorrent.com%3A80&amp;tr=udp%3A%2F%2Fopen.demonii.com%3A1337&amp;tr=udp%3A%2F%2Ftracker.coppersurfer.tk%3A6969&amp;tr=udp%3A%2F%2Fexodus.desync.com%3A6969","seeders":5,"leechers":3,"uploader":"Horrorspoke","files":3,"time":1348499342,"description":"Format : AVI\nFormat/Info : Audio Video Interleave\nFile size : 721 MiB\nDuration : 1h 27mn\nOverall bit rate : 1 153 Kbps\nWriting library : VirtualDub build 30091/release\n\nVideo\nID : 0\nFormat : MPEG-4 Visual\nFormat profile : Advanced Simple@L5\nFormat settings, BVOP : 2\nFormat settings, QPel : No\nFormat settings, GMC : No warppoints\nFormat settings, Matrix : Default (H.263)\nMuxing mode : Packed bitstream\nCodec ID : XVID\nCodec ID/Hint : XviD\nDuration : 1h 27mn\nBit rate : 1 016 Kbps\nWidth : 522 pixels\nHeight : 282 pixels\nDisplay aspect ratio : 1.85:1\nFrame rate : 23.976 fps\nColor space : YUV\nChroma subsampling : 4:2:0\nBit depth : 8 bits\nScan type : Progressive\nCompression mode : Lossy\nBits/(Pixel*Frame) : 0.288\nStream size : 635 MiB (88%)\nWriting library : XviD 64\n\nAudio\nID : 1\nFormat : MPEG Audio\nFormat version : Version 1\nFormat profile : Layer 3\nCodec ID : 55\nCodec ID/Hint : MP3\nDuration : 1h 27mn\nBit rate mode : Constant\nBit rate : 128 Kbps\nChannel(s) : 2 channels\nSampling rate : 44.1 KHz\nCompression mode : Lossy\nStream size : 80.0 MiB (11%)\nAlignment : Split accross interleaves\nInterleave, duration : 42 ms (1.00 video frame)\nInterleave, preload duration : 500 ms\n\n &lt;a href=&quot;\nhttp://www.imdb.com/title/tt2247692/&quot; rel=&quot;nofollow&quot; target=&quot;_NEW&quot;&gt;\nhttp://www.imdb.com/title/tt2247692/&lt;/a&gt;\n\n\nRatings: 5.1/10 from 5,097 users Metascore: 40/100\nReviews: 131 user | 13 critic | 11 from Metacritic.com\n\nA documentary that examines the question, &quot;If Barack Obama wins a second term, where will we be in 2016?&quot;\n\nDirectors:\nDinesh D'Souza, John Sullivan\nWriters:\nDinesh D'Souza, John Sullivan, and 1 more credit Â»\nStars:\nDinesh D'Souza, Dr. Alice Dewey and Willy Kauai | See full cast and crew\n\nSource Used\n\nh264 NoGRP ...........Thanks\n\n\nSource was small res nothing i can do ............someone might want this ...........who knows\n\nEnjoy\n\n\nGreets\n\nINSPiRAL,LEGION,iLLUSiON,DiLLON,THORN,DQ1,26K,ETRG/SeeN/CM8 .......and thats about it\n\nSCREENS:\n\n\nSEED AND HAVE FUN!!!","torrent":{"xt":"urn:btih:7c182514a823eecbda8c56ac2c312ef6257b3664","amp;dn":"2016+Obamas+America+WEBRip+XViD-UNiQUE","amp;tr":["udp%3A%2F%2Ftracker.openbittorrent.com%3A80","udp%3A%2F%2Fopen.demonii.com%3A1337","udp%3A%2F%2Ftracker.coppersurfer.tk%3A6969","udp%3A%2F%2Fexodus.desync.com%3A6969"],"infoHash":"7c182514a823eecbda8c56ac2c312ef6257b3664","infoHashBuffer":{"type":"Buffer","data":[124,24,37,20,168,35,238,203,218,140,86,172,44,49,46,246,37,123,54,100]},"announce":[],"urlList":[]}}